<?xml version="1.0" standalone="no"?><!DOCTYPE svg PUBLIC "-//W3C//DTD SVG 1.1//EN" "http://www.w3.org/Graphics/SVG/1.1/DTD/svg11.dtd"><svg class="icon" width="60px" height="60.00px" viewBox="0 0 1024 1024" version="1.1" xmlns="http://www.w3.org/2000/svg"><path fill="#A9B7B7" d="M539.325953 527.33936l288.299681-288.605094c8.54905-8.572236 8.54905-22.485107-0.02456-31.033807-8.597148-8.572236-22.486028-8.572236-31.034055 0L507.912236 496.668827 219.28099 207.700459c-8.572587-8.572236-22.486028-8.572236-31.058616 0-8.572587 8.5487-8.572587 22.460548-0.02456 31.033807l288.299681 288.605094L188.197814 815.970036c-8.54905 8.573259-8.54905 22.460548 0.02456 31.033807 4.285782 4.261047 9.895776 6.417153 15.529308 6.417153 5.608971 0 11.243526-2.155083 15.529308-6.441713l288.630223-288.968367 288.65376 288.968367c4.285782 4.285606 9.895776 6.441713 15.529308 6.441713 5.608971 0 11.218966-2.155083 15.504747-6.417153 8.573611-8.573259 8.573611-22.460548 0.02456-31.033807L539.325953 527.33936z" /></svg>